name C:\Users\u0101727\Documents\MyRepositories\upper-imu-dc\OpenSim\subject0\MA\ResultsMA\grid_4nodes_9dim\angles_4.mot
datacolumns 10
datarows 56
range 400.01000000 400.56000000
endheader 
time	clav_prot	clav_elev	scapula_abduction	scapula_elevation	scapula_upward_rot	scapula_winging	plane_elv	shoulder_elv	axial_rot	
        400.01000000	        -50.00000000	        -10.00000000	        -40.00000000	         -3.33333333	          0.00000000	         10.00000000	        -30.00000000	         63.33333333	        -90.00000000	
        400.02000000	        -38.33333333	        -10.00000000	        -40.00000000	         -3.33333333	          0.00000000	         10.00000000	        -30.00000000	         63.33333333	        -90.00000000	
        400.03000000	        -26.66666667	        -10.00000000	        -40.00000000	         -3.33333333	          0.00000000	         10.00000000	        -30.00000000	         63.33333333	        -90.00000000	
        400.04000000	        -15.00000000	        -10.00000000	        -40.00000000	         -3.33333333	          0.00000000	         10.00000000	        -30.00000000	         63.33333333	        -90.00000000	
        400.05000000	        -50.00000000	          0.00000000	        -40.00000000	         -3.33333333	          0.00000000	         10.00000000	        -30.00000000	         63.33333333	        -90.00000000	
        400.06000000	        -38.33333333	          0.00000000	        -40.00000000	         -3.33333333	          0.00000000	         10.00000000	        -30.00000000	         63.33333333	        -90.00000000	
        400.07000000	        -26.66666667	          0.00000000	        -40.00000000	         -3.33333333	          0.00000000	         10.00000000	        -30.00000000	         63.33333333	        -90.00000000	
        400.08000000	        -15.00000000	          0.00000000	        -40.00000000	         -3.33333333	          0.00000000	         10.00000000	        -30.00000000	         63.33333333	        -90.00000000	
        400.09000000	        -50.00000000	         10.00000000	        -40.00000000	         -3.33333333	          0.00000000	         10.00000000	        -30.00000000	         63.33333333	        -90.00000000	
        400.10000000	        -38.33333333	         10.00000000	        -40.00000000	         -3.33333333	          0.00000000	         10.00000000	        -30.00000000	         63.33333333	        -90.00000000	
        400.11000000	        -26.66666667	         10.00000000	        -40.00000000	         -3.33333333	          0.00000000	         10.00000000	        -30.00000000	         63.33333333	        -90.00000000	
        400.12000000	        -15.00000000	         10.00000000	        -40.00000000	         -3.33333333	          0.00000000	         10.00000000	        -30.00000000	         63.33333333	        -90.00000000	
        400.13000000	        -50.00000000	         20.00000000	        -40.00000000	         -3.33333333	          0.00000000	         10.00000000	        -30.00000000	         63.33333333	        -90.00000000	
        400.14000000	        -38.33333333	         20.00000000	        -40.00000000	         -3.33333333	          0.00000000	         10.00000000	        -30.00000000	         63.33333333	        -90.00000000	
        400.15000000	        -26.66666667	         20.00000000	        -40.00000000	         -3.33333333	          0.00000000	         10.00000000	        -30.00000000	         63.33333333	        -90.00000000	
        400.16000000	        -15.00000000	         20.00000000	        -40.00000000	         -3.33333333	          0.00000000	         10.00000000	        -30.00000000	         63.33333333	        -90.00000000	
        400.17000000	        -50.00000000	        -10.00000000	        -21.66666667	         -3.33333333	          0.00000000	         10.00000000	        -30.00000000	         63.33333333	        -90.00000000	
        400.18000000	        -38.33333333	        -10.00000000	        -21.66666667	         -3.33333333	          0.00000000	         10.00000000	        -30.00000000	         63.33333333	        -90.00000000	
        400.19000000	        -26.66666667	        -10.00000000	        -21.66666667	         -3.33333333	          0.00000000	         10.00000000	        -30.00000000	         63.33333333	        -90.00000000	
        400.20000000	        -15.00000000	        -10.00000000	        -21.66666667	         -3.33333333	          0.00000000	         10.00000000	        -30.00000000	         63.33333333	        -90.00000000	
        400.21000000	        -50.00000000	          0.00000000	        -21.66666667	         -3.33333333	          0.00000000	         10.00000000	        -30.00000000	         63.33333333	        -90.00000000	
        400.22000000	        -38.33333333	          0.00000000	        -21.66666667	         -3.33333333	          0.00000000	         10.00000000	        -30.00000000	         63.33333333	        -90.00000000	
        400.23000000	        -26.66666667	          0.00000000	        -21.66666667	         -3.33333333	          0.00000000	         10.00000000	        -30.00000000	         63.33333333	        -90.00000000	
        400.24000000	        -15.00000000	          0.00000000	        -21.66666667	         -3.33333333	          0.00000000	         10.00000000	        -30.00000000	         63.33333333	        -90.00000000	
        400.25000000	        -50.00000000	         10.00000000	        -21.66666667	         -3.33333333	          0.00000000	         10.00000000	        -30.00000000	         63.33333333	        -90.00000000	
        400.26000000	        -38.33333333	         10.00000000	        -21.66666667	         -3.33333333	          0.00000000	         10.00000000	        -30.00000000	         63.33333333	        -90.00000000	
        400.27000000	        -26.66666667	         10.00000000	        -21.66666667	         -3.33333333	          0.00000000	         10.00000000	        -30.00000000	         63.33333333	        -90.00000000	
        400.28000000	        -15.00000000	         10.00000000	        -21.66666667	         -3.33333333	          0.00000000	         10.00000000	        -30.00000000	         63.33333333	        -90.00000000	
        400.29000000	        -50.00000000	         20.00000000	        -21.66666667	         -3.33333333	          0.00000000	         10.00000000	        -30.00000000	         63.33333333	        -90.00000000	
        400.30000000	        -38.33333333	         20.00000000	        -21.66666667	         -3.33333333	          0.00000000	         10.00000000	        -30.00000000	         63.33333333	        -90.00000000	
        400.31000000	        -26.66666667	         20.00000000	        -21.66666667	         -3.33333333	          0.00000000	         10.00000000	        -30.00000000	         63.33333333	        -90.00000000	
        400.32000000	        -15.00000000	         20.00000000	        -21.66666667	         -3.33333333	          0.00000000	         10.00000000	        -30.00000000	         63.33333333	        -90.00000000	
        400.33000000	        -50.00000000	        -10.00000000	         -3.33333333	         -3.33333333	          0.00000000	         10.00000000	        -30.00000000	         63.33333333	        -90.00000000	
        400.34000000	        -38.33333333	        -10.00000000	         -3.33333333	         -3.33333333	          0.00000000	         10.00000000	        -30.00000000	         63.33333333	        -90.00000000	
        400.35000000	        -26.66666667	        -10.00000000	         -3.33333333	         -3.33333333	          0.00000000	         10.00000000	        -30.00000000	         63.33333333	        -90.00000000	
        400.36000000	        -15.00000000	        -10.00000000	         -3.33333333	         -3.33333333	          0.00000000	         10.00000000	        -30.00000000	         63.33333333	        -90.00000000	
        400.37000000	        -50.00000000	          0.00000000	         -3.33333333	         -3.33333333	          0.00000000	         10.00000000	        -30.00000000	         63.33333333	        -90.00000000	
        400.38000000	        -38.33333333	          0.00000000	         -3.33333333	         -3.33333333	          0.00000000	         10.00000000	        -30.00000000	         63.33333333	        -90.00000000	
        400.39000000	        -26.66666667	          0.00000000	         -3.33333333	         -3.33333333	          0.00000000	         10.00000000	        -30.00000000	         63.33333333	        -90.00000000	
        400.40000000	        -15.00000000	          0.00000000	         -3.33333333	         -3.33333333	          0.00000000	         10.00000000	        -30.00000000	         63.33333333	        -90.00000000	
        400.41000000	        -50.00000000	         10.00000000	         -3.33333333	         -3.33333333	          0.00000000	         10.00000000	        -30.00000000	         63.33333333	        -90.00000000	
        400.42000000	        -38.33333333	         10.00000000	         -3.33333333	         -3.33333333	          0.00000000	         10.00000000	        -30.00000000	         63.33333333	        -90.00000000	
        400.43000000	        -26.66666667	         10.00000000	         -3.33333333	         -3.33333333	          0.00000000	         10.00000000	        -30.00000000	         63.33333333	        -90.00000000	
        400.44000000	        -15.00000000	         10.00000000	         -3.33333333	         -3.33333333	          0.00000000	         10.00000000	        -30.00000000	         63.33333333	        -90.00000000	
        400.45000000	        -50.00000000	         20.00000000	         -3.33333333	         -3.33333333	          0.00000000	         10.00000000	        -30.00000000	         63.33333333	        -90.00000000	
        400.46000000	        -38.33333333	         20.00000000	         -3.33333333	         -3.33333333	          0.00000000	         10.00000000	        -30.00000000	         63.33333333	        -90.00000000	
        400.47000000	        -26.66666667	         20.00000000	         -3.33333333	         -3.33333333	          0.00000000	         10.00000000	        -30.00000000	         63.33333333	        -90.00000000	
        400.48000000	        -15.00000000	         20.00000000	         -3.33333333	         -3.33333333	          0.00000000	         10.00000000	        -30.00000000	         63.33333333	        -90.00000000	
        400.49000000	        -50.00000000	        -10.00000000	         15.00000000	         -3.33333333	          0.00000000	         10.00000000	        -30.00000000	         63.33333333	        -90.00000000	
        400.50000000	        -38.33333333	        -10.00000000	         15.00000000	         -3.33333333	          0.00000000	         10.00000000	        -30.00000000	         63.33333333	        -90.00000000	
        400.51000000	        -26.66666667	        -10.00000000	         15.00000000	         -3.33333333	          0.00000000	         10.00000000	        -30.00000000	         63.33333333	        -90.00000000	
        400.52000000	        -15.00000000	        -10.00000000	         15.00000000	         -3.33333333	          0.00000000	         10.00000000	        -30.00000000	         63.33333333	        -90.00000000	
        400.53000000	        -50.00000000	          0.00000000	         15.00000000	         -3.33333333	          0.00000000	         10.00000000	        -30.00000000	         63.33333333	        -90.00000000	
        400.54000000	        -38.33333333	          0.00000000	         15.00000000	         -3.33333333	          0.00000000	         10.00000000	        -30.00000000	         63.33333333	        -90.00000000	
        400.55000000	        -26.66666667	          0.00000000	         15.00000000	         -3.33333333	          0.00000000	         10.00000000	        -30.00000000	         63.33333333	        -90.00000000	
        400.56000000	        -15.00000000	          0.00000000	         15.00000000	         -3.33333333	          0.00000000	         10.00000000	        -30.00000000	         63.33333333	        -90.00000000	
